<mxfile host="app.diagrams.net" modified="2023-11-22T06:09:59.586Z" agent="Mozilla/5.0 (Windows NT 10.0; Win64; x64) AppleWebKit/537.36 (KHTML, like Gecko) Chrome/119.0.0.0 Safari/537.36" etag="VBrzSPnF00tM0j0zEV_9" version="21.7.2" type="github" pages="2">
  <diagram name="第 1 页" id="qsA7nAwAdNASHieRgJQB">
    <mxGraphModel dx="1434" dy="833" grid="1" gridSize="10" guides="1" tooltips="1" connect="1" arrows="1" fold="1" page="1" pageScale="1" pageWidth="827" pageHeight="1169" math="0" shadow="0">
      <root>
        <mxCell id="0" />
        <mxCell id="1" parent="0" />
        <mxCell id="IXahhotZENDEbimjL1xp-6" style="edgeStyle=orthogonalEdgeStyle;rounded=0;orthogonalLoop=1;jettySize=auto;html=1;exitX=0.5;exitY=0.975;exitDx=0;exitDy=0;exitPerimeter=0;" parent="1" edge="1">
          <mxGeometry relative="1" as="geometry">
            <mxPoint x="190" y="288" as="sourcePoint" />
          </mxGeometry>
        </mxCell>
        <mxCell id="IXahhotZENDEbimjL1xp-7" style="edgeStyle=orthogonalEdgeStyle;rounded=0;orthogonalLoop=1;jettySize=auto;html=1;exitX=0.5;exitY=0.975;exitDx=0;exitDy=0;exitPerimeter=0;" parent="1" edge="1">
          <mxGeometry relative="1" as="geometry">
            <mxPoint x="430" y="390" as="targetPoint" />
          </mxGeometry>
        </mxCell>
        <mxCell id="IXahhotZENDEbimjL1xp-8" value="CLickhouse" style="rounded=1;whiteSpace=wrap;html=1;" parent="1" vertex="1">
          <mxGeometry x="780" y="640" width="340" height="50" as="geometry" />
        </mxCell>
        <mxCell id="IXahhotZENDEbimjL1xp-11" value="Flink CDC" style="shape=singleArrow;direction=south;whiteSpace=wrap;html=1;" parent="1" vertex="1">
          <mxGeometry x="790" y="540" width="60" height="100" as="geometry" />
        </mxCell>
        <mxCell id="IXahhotZENDEbimjL1xp-12" value="Flink CDC" style="shape=singleArrow;direction=south;whiteSpace=wrap;html=1;fillColor=#fff2cc;strokeColor=#d6b656;" parent="1" vertex="1">
          <mxGeometry x="1030" y="540" width="60" height="100" as="geometry" />
        </mxCell>
        <mxCell id="IXahhotZENDEbimjL1xp-13" value="DB_MASTER_1" style="rounded=0;whiteSpace=wrap;html=1;" parent="1" vertex="1">
          <mxGeometry x="760" y="300" width="120" height="60" as="geometry" />
        </mxCell>
        <mxCell id="IXahhotZENDEbimjL1xp-14" value="DB_MASTER_2" style="rounded=0;whiteSpace=wrap;html=1;fillColor=#fff2cc;strokeColor=#d6b656;" parent="1" vertex="1">
          <mxGeometry x="1000" y="300" width="120" height="60" as="geometry" />
        </mxCell>
        <mxCell id="IXahhotZENDEbimjL1xp-15" value="DB_BACKUP_2" style="rounded=0;whiteSpace=wrap;html=1;fillColor=#fff2cc;strokeColor=#d6b656;" parent="1" vertex="1">
          <mxGeometry x="1000" y="470" width="120" height="60" as="geometry" />
        </mxCell>
        <mxCell id="IXahhotZENDEbimjL1xp-16" value="DB_BACKUP_1" style="rounded=0;whiteSpace=wrap;html=1;" parent="1" vertex="1">
          <mxGeometry x="760" y="470" width="120" height="60" as="geometry" />
        </mxCell>
        <mxCell id="9LFnU_bApeq4fVWj5Kd6-1" value="DRS" style="shape=singleArrow;direction=south;whiteSpace=wrap;html=1;" parent="1" vertex="1">
          <mxGeometry x="790" y="360" width="60" height="110" as="geometry" />
        </mxCell>
        <mxCell id="9LFnU_bApeq4fVWj5Kd6-2" value="DRS" style="shape=singleArrow;direction=south;whiteSpace=wrap;html=1;fillColor=#fff2cc;strokeColor=#d6b656;" parent="1" vertex="1">
          <mxGeometry x="1030" y="360" width="60" height="109" as="geometry" />
        </mxCell>
        <mxCell id="g3bt5XTVbCjW5nE85IyD-1" value="APP群" style="rounded=1;whiteSpace=wrap;html=1;" vertex="1" parent="1">
          <mxGeometry x="730" y="160" width="440" height="60" as="geometry" />
        </mxCell>
        <mxCell id="g3bt5XTVbCjW5nE85IyD-5" value="" style="shape=singleArrow;direction=south;whiteSpace=wrap;html=1;" vertex="1" parent="1">
          <mxGeometry x="800" y="220" width="40" height="80" as="geometry" />
        </mxCell>
        <mxCell id="g3bt5XTVbCjW5nE85IyD-6" value="" style="shape=singleArrow;direction=south;whiteSpace=wrap;html=1;fillColor=#fff2cc;strokeColor=#d6b656;" vertex="1" parent="1">
          <mxGeometry x="1040" y="220" width="40" height="80" as="geometry" />
        </mxCell>
        <mxCell id="g3bt5XTVbCjW5nE85IyD-7" value="非CRM链接" style="text;html=1;strokeColor=none;fillColor=none;align=center;verticalAlign=middle;whiteSpace=wrap;rounded=0;fontStyle=1" vertex="1" parent="1">
          <mxGeometry x="720" y="245" width="90" height="30" as="geometry" />
        </mxCell>
        <mxCell id="g3bt5XTVbCjW5nE85IyD-8" value="CRM链接" style="text;html=1;strokeColor=none;fillColor=none;align=center;verticalAlign=middle;whiteSpace=wrap;rounded=0;fontStyle=1" vertex="1" parent="1">
          <mxGeometry x="1070" y="245" width="90" height="30" as="geometry" />
        </mxCell>
        <mxCell id="g3bt5XTVbCjW5nE85IyD-9" value="CLickhouse" style="rounded=1;whiteSpace=wrap;html=1;" vertex="1" parent="1">
          <mxGeometry x="150" y="640" width="340" height="50" as="geometry" />
        </mxCell>
        <mxCell id="g3bt5XTVbCjW5nE85IyD-10" value="Flink CDC" style="shape=singleArrow;direction=south;whiteSpace=wrap;html=1;" vertex="1" parent="1">
          <mxGeometry x="300" y="540" width="60" height="100" as="geometry" />
        </mxCell>
        <mxCell id="g3bt5XTVbCjW5nE85IyD-12" value="DB_MASTER_1" style="rounded=0;whiteSpace=wrap;html=1;" vertex="1" parent="1">
          <mxGeometry x="270" y="300" width="120" height="60" as="geometry" />
        </mxCell>
        <mxCell id="g3bt5XTVbCjW5nE85IyD-15" value="DB_BACKUP_1" style="rounded=0;whiteSpace=wrap;html=1;" vertex="1" parent="1">
          <mxGeometry x="270" y="470" width="120" height="60" as="geometry" />
        </mxCell>
        <mxCell id="g3bt5XTVbCjW5nE85IyD-16" value="DRS" style="shape=singleArrow;direction=south;whiteSpace=wrap;html=1;" vertex="1" parent="1">
          <mxGeometry x="300" y="360" width="60" height="110" as="geometry" />
        </mxCell>
        <mxCell id="g3bt5XTVbCjW5nE85IyD-18" value="APP群" style="rounded=1;whiteSpace=wrap;html=1;" vertex="1" parent="1">
          <mxGeometry x="100" y="160" width="440" height="60" as="geometry" />
        </mxCell>
        <mxCell id="g3bt5XTVbCjW5nE85IyD-19" value="" style="shape=singleArrow;direction=south;whiteSpace=wrap;html=1;" vertex="1" parent="1">
          <mxGeometry x="310" y="220" width="40" height="80" as="geometry" />
        </mxCell>
        <mxCell id="g3bt5XTVbCjW5nE85IyD-21" value="JDBC链接" style="text;html=1;strokeColor=none;fillColor=none;align=center;verticalAlign=middle;whiteSpace=wrap;rounded=0;fontStyle=1" vertex="1" parent="1">
          <mxGeometry x="230" y="245" width="90" height="30" as="geometry" />
        </mxCell>
        <mxCell id="g3bt5XTVbCjW5nE85IyD-26" value="" style="endArrow=none;dashed=1;html=1;dashPattern=1 3;strokeWidth=2;rounded=0;" edge="1" parent="1">
          <mxGeometry width="50" height="50" relative="1" as="geometry">
            <mxPoint x="620" y="760" as="sourcePoint" />
            <mxPoint x="620" y="110" as="targetPoint" />
          </mxGeometry>
        </mxCell>
        <mxCell id="g3bt5XTVbCjW5nE85IyD-25" value="&lt;font style=&quot;font-size: 15px;&quot;&gt;转变&lt;/font&gt;" style="html=1;shadow=0;dashed=0;align=center;verticalAlign=middle;shape=mxgraph.arrows2.arrow;dy=0;dx=10;notch=10;fontStyle=1" vertex="1" parent="1">
          <mxGeometry x="560" y="420" width="100" height="30" as="geometry" />
        </mxCell>
      </root>
    </mxGraphModel>
  </diagram>
  <diagram id="8HLk-VeAkFTtaC2HQgmH" name="第 2 页">
    <mxGraphModel dx="1434" dy="833" grid="1" gridSize="10" guides="1" tooltips="1" connect="1" arrows="1" fold="1" page="1" pageScale="1" pageWidth="827" pageHeight="1169" math="0" shadow="0">
      <root>
        <mxCell id="0" />
        <mxCell id="1" parent="0" />
        <mxCell id="iffqde4-TSKEQajBlg3I-8" value="" style="edgeStyle=orthogonalEdgeStyle;rounded=0;orthogonalLoop=1;jettySize=auto;html=1;" parent="1" source="iffqde4-TSKEQajBlg3I-1" target="iffqde4-TSKEQajBlg3I-7" edge="1">
          <mxGeometry relative="1" as="geometry" />
        </mxCell>
        <mxCell id="iffqde4-TSKEQajBlg3I-1" value="代码改造，删除跨库调用" style="rounded=1;whiteSpace=wrap;html=1;" parent="1" vertex="1">
          <mxGeometry x="120" y="330" width="120" height="60" as="geometry" />
        </mxCell>
        <mxCell id="iffqde4-TSKEQajBlg3I-6" value="" style="edgeStyle=orthogonalEdgeStyle;rounded=0;orthogonalLoop=1;jettySize=auto;html=1;" parent="1" source="iffqde4-TSKEQajBlg3I-4" target="iffqde4-TSKEQajBlg3I-5" edge="1">
          <mxGeometry relative="1" as="geometry" />
        </mxCell>
        <mxCell id="iffqde4-TSKEQajBlg3I-4" value="新增MYSQL" style="rounded=1;whiteSpace=wrap;html=1;" parent="1" vertex="1">
          <mxGeometry x="120" y="460" width="120" height="60" as="geometry" />
        </mxCell>
        <mxCell id="iffqde4-TSKEQajBlg3I-5" value="开启数据同步，老-&amp;gt;新" style="whiteSpace=wrap;html=1;rounded=1;" parent="1" vertex="1">
          <mxGeometry x="320" y="460" width="140" height="60" as="geometry" />
        </mxCell>
        <mxCell id="iffqde4-TSKEQajBlg3I-7" value="修改CRM JDBC连接指向新库" style="whiteSpace=wrap;html=1;rounded=1;" parent="1" vertex="1">
          <mxGeometry x="330" y="330" width="120" height="60" as="geometry" />
        </mxCell>
      </root>
    </mxGraphModel>
  </diagram>
</mxfile>
